<svg width="29" height="18" viewBox="0 0 29 18" fill="none" xmlns="http://www.w3.org/2000/svg">
<path d="M12.2898 9.93337C11.8577 9.39129 11.3628 8.97648 10.8087 8.69586C11.2983 8.3978 11.72 8.03176 12.0685 7.59601C12.6557 6.86046 12.9537 5.93842 12.9537 4.85427C12.9537 3.94965 12.715 3.11822 12.2428 2.38442C11.7723 1.65061 11.0718 1.06149 10.1605 0.632712C9.26832 0.212648 8.1932 0 6.96823 0H0V18H7.28885C8.48245 18 9.54886 17.7821 10.4567 17.3534C11.382 16.9176 12.1034 16.3076 12.5982 15.5424C13.0948 14.7737 13.3475 13.9005 13.3475 12.947C13.3475 11.8298 12.992 10.8171 12.2898 9.93511V9.93337ZM8.58875 6.65306C8.15835 7.00166 7.52931 7.17945 6.72254 7.17945H3.70802V3.19143H6.72254C7.52582 3.19143 8.15138 3.37445 8.58177 3.73699C8.99475 4.08385 9.19513 4.56318 9.19513 5.19763C9.19513 5.83209 8.99649 6.32363 8.58875 6.65306ZM3.70802 10.3726H6.94383C7.79068 10.3726 8.44238 10.5783 8.9355 11.0019C9.40772 11.408 9.63772 11.9466 9.63772 12.6507C9.63772 13.3549 9.42514 13.8517 8.98603 14.2229C8.53124 14.6081 7.87781 14.8034 7.04141 14.8034H3.70802V10.3726Z" fill="white"/>
<path d="M27.5837 6.92417C27.0226 5.90975 26.228 5.10973 25.2209 4.54848C24.2154 3.98723 23.0532 3.70312 21.7707 3.70312C20.4882 3.70312 19.2389 3.99595 18.2091 4.57288C17.1775 5.15156 16.3655 5.98299 15.7975 7.04796C15.2294 8.1112 14.9419 9.35915 14.9419 10.757C14.9419 12.1549 15.2381 13.4047 15.8236 14.4662C16.4091 15.5294 17.228 16.366 18.2596 16.9517C19.2894 17.5373 20.4708 17.8337 21.7725 17.8337C23.3703 17.8337 24.7277 17.4276 25.8081 16.6275C26.8884 15.8275 27.6447 14.7852 28.0576 13.5319L28.0873 13.443H24.9264L24.9072 13.4814C24.2991 14.7137 23.2449 15.3377 21.7707 15.3377C20.7444 15.3377 19.8662 15.0117 19.1605 14.372C18.4722 13.7463 18.0766 12.9097 17.9843 11.8831H28.3208L28.3295 11.8255C28.3957 11.4124 28.4288 10.9453 28.4288 10.4381C28.4288 9.12039 28.1448 7.9386 27.5837 6.92417ZM19.2093 7.10545C19.8819 6.50412 20.7026 6.20084 21.647 6.20084C22.6908 6.20084 23.5777 6.50936 24.2834 7.11941C24.9699 7.71203 25.3341 8.5086 25.3655 9.48468H18.0139C18.1533 8.49291 18.5558 7.69285 19.211 7.1072L19.2093 7.10545Z" fill="white"/>
<path d="M25.1268 0.414062H18.2422V2.04551H25.1268V0.414062Z" fill="white"/>
</svg>
