<svg width="44" height="44" viewBox="0 0 44 44" fill="none" xmlns="http://www.w3.org/2000/svg">
<path d="M28.7961 39.0375C28.4523 39.3812 27.986 39.5743 27.4999 39.5743C27.0138 39.5743 26.5475 39.3812 26.2037 39.0375L23.2961 36.1299C22.9524 35.7861 22.7593 35.3198 22.7593 34.8337C22.7593 34.3476 22.9524 33.8813 23.2961 33.5375L33.5371 23.2965C33.8809 22.9528 34.3471 22.7598 34.8332 22.7598C35.3194 22.7598 35.7856 22.9528 36.1294 23.2965L39.0371 26.2042C39.3807 26.548 39.5738 27.0142 39.5738 27.5004C39.5738 27.9865 39.3807 28.4527 39.0371 28.7965L28.7961 39.0375Z" stroke="#D1FF52" stroke-width="2" stroke-linecap="round" stroke-linejoin="round"/>
<path d="M32.9998 23.8327L30.479 11.2304C30.4104 10.8875 30.2453 10.5714 30.0029 10.3193C29.7606 10.0672 29.4513 9.88972 29.1113 9.80769L5.93068 3.71736C5.6253 3.64353 5.30607 3.64941 5.00361 3.73445C4.70116 3.81949 4.42563 3.98083 4.20347 4.20299C3.98132 4.42515 3.81998 4.70067 3.73494 5.00312C3.6499 5.30558 3.64401 5.62481 3.71785 5.93019L9.80818 29.1109C9.89021 29.4508 10.0677 29.7601 10.3198 30.0024C10.5719 30.2448 10.888 30.41 11.2308 30.4785L23.8332 32.9994" stroke="#D1FF52" stroke-width="2" stroke-linecap="round" stroke-linejoin="round"/>
<path d="M4.2168 4.2168L17.5745 17.5745" stroke="#D1FF52" stroke-width="2" stroke-linecap="round" stroke-linejoin="round"/>
<path d="M20.1667 23.8333C22.1917 23.8333 23.8333 22.1917 23.8333 20.1667C23.8333 18.1416 22.1917 16.5 20.1667 16.5C18.1416 16.5 16.5 18.1416 16.5 20.1667C16.5 22.1917 18.1416 23.8333 20.1667 23.8333Z" stroke="#D1FF52" stroke-width="2" stroke-linecap="round" stroke-linejoin="round"/>
</svg>
