<svg width="44" height="44" viewBox="0 0 44 44" fill="none" xmlns="http://www.w3.org/2000/svg">
<path d="M28.4826 20.7032C28.1389 21.047 27.9458 21.5132 27.9458 21.9994C27.9458 22.4855 28.1389 22.9517 28.4826 23.2955L32.8386 27.6534C33.1824 27.9971 33.6486 28.1901 34.1347 28.1901C34.6209 28.1901 35.0871 27.9971 35.4309 27.6534L39.7887 23.2955C40.1324 22.9517 40.3255 22.4855 40.3255 21.9994C40.3255 21.5132 40.1324 21.047 39.7887 20.7032L35.4309 16.3454C35.0871 16.0017 34.6209 15.8086 34.1347 15.8086C33.6486 15.8086 33.1824 16.0017 32.8386 16.3454L28.4826 20.7032Z" stroke="#D1FF52" stroke-width="2" stroke-linecap="round" stroke-linejoin="round"/>
<path d="M4.21109 20.7032C3.86739 21.047 3.67432 21.5132 3.67432 21.9994C3.67432 22.4855 3.86739 22.9517 4.21109 23.2955L8.56892 27.6534C8.91273 27.9971 9.37896 28.1901 9.86509 28.1901C10.3512 28.1901 10.8175 27.9971 11.1613 27.6534L15.5191 23.2955C15.8628 22.9517 16.0559 22.4855 16.0559 21.9994C16.0559 21.5132 15.8628 21.047 15.5191 20.7032L11.1613 16.3454C10.8175 16.0017 10.3512 15.8086 9.86509 15.8086C9.37896 15.8086 8.91273 16.0017 8.56892 16.3454L4.21109 20.7032Z" stroke="#D1FF52" stroke-width="2" stroke-linecap="round" stroke-linejoin="round"/>
<path d="M16.346 32.8381C16.1756 33.0084 16.0404 33.2105 15.9481 33.4331C15.8558 33.6557 15.8083 33.8942 15.8083 34.1352C15.8083 34.3761 15.8558 34.6147 15.9481 34.8372C16.0404 35.0598 16.1756 35.262 16.346 35.4323L20.7039 39.7883C21.0477 40.1319 21.5139 40.325 22 40.325C22.4862 40.325 22.9524 40.1319 23.2962 39.7883L27.654 35.4323C27.8245 35.262 27.9597 35.0598 28.052 34.8372C28.1442 34.6147 28.1917 34.3761 28.1917 34.1352C28.1917 33.8942 28.1442 33.6557 28.052 33.4331C27.9597 33.2105 27.8245 33.0084 27.654 32.8381L23.2962 28.4821C22.9524 28.1384 22.4862 27.9453 22 27.9453C21.5139 27.9453 21.0477 28.1384 20.7039 28.4821L16.346 32.8381Z" stroke="#D1FF52" stroke-width="2" stroke-linecap="round" stroke-linejoin="round"/>
<path d="M16.3461 8.56844C16.0024 8.91224 15.8093 9.37847 15.8093 9.8646C15.8093 10.3507 16.0024 10.817 16.3461 11.1608L20.7039 15.5168C21.0477 15.8605 21.514 16.0535 22.0001 16.0535C22.4862 16.0535 22.9525 15.8605 23.2963 15.5168L27.6541 11.1608C27.9978 10.817 28.1909 10.3507 28.1909 9.8646C28.1909 9.37847 27.9978 8.91224 27.6541 8.56844L23.2963 4.2106C22.9525 3.86691 22.4862 3.67383 22.0001 3.67383C21.514 3.67383 21.0477 3.86691 20.7039 4.2106L16.3461 8.56844Z" stroke="#D1FF52" stroke-width="2" stroke-linecap="round" stroke-linejoin="round"/>
</svg>
