<svg width="1540" height="422" viewBox="0 0 1540 422" fill="none" xmlns="http://www.w3.org/2000/svg">
<path d="M421.236 211.37C420.966 327.133 327.177 420.967 211.369 421.237C211.639 305.475 305.428 211.64 421.236 211.37Z" fill="#D1FF52" fill-opacity="0.1" stroke="white"/>
<path d="M0.500977 211.37C116.309 211.64 210.098 305.475 210.368 421.237C94.5604 420.967 0.770866 327.133 0.500977 211.37Z" fill="#D1FF52" fill-opacity="0.1" stroke="white"/>
<path d="M211.369 0.500977C327.131 0.770865 420.965 94.5604 421.236 210.368C305.473 210.098 211.639 116.309 211.369 0.500977Z" fill="#D1FF52" fill-opacity="0.1" stroke="white"/>
<path d="M210.369 0.5C210.1 116.264 116.309 210.099 0.5 210.368V0.5H210.369Z" fill="#D1FF52" fill-opacity="0.1" stroke="white"/>
<path d="M260.153 211.372C259.886 238.211 238.208 259.888 211.369 260.156C211.637 233.318 233.315 211.64 260.153 211.372Z" fill="#D1FF52" fill-opacity="0.1" stroke="white"/>
<path d="M161.579 211.372C188.418 211.64 210.095 233.317 210.363 260.156C183.524 259.888 161.847 238.211 161.579 211.372Z" fill="#D1FF52" fill-opacity="0.1" stroke="white"/>
<path d="M211.369 161.579C238.208 161.847 259.885 183.524 260.153 210.363C233.314 210.095 211.637 188.418 211.369 161.579Z" fill="#D1FF52" fill-opacity="0.1" stroke="white"/>
<path d="M210.363 161.579C210.095 188.418 188.418 210.095 161.579 210.363C161.847 183.525 183.525 161.847 210.363 161.579Z" fill="#D1FF52" fill-opacity="0.1" stroke="white"/>
<path d="M635.069 123.268C649.086 123.268 662.279 125.717 674.561 130.657H674.562C686.894 135.599 697.634 142.534 706.832 151.551C716.03 160.568 723.238 171.217 728.589 183.506V183.507C733.889 195.83 736.565 209.337 736.565 224.126C736.565 238.916 733.889 252.742 728.589 265.063C723.284 277.397 716.031 288.094 706.831 297.157L706.83 297.158C697.632 306.266 686.892 313.245 674.562 318.187C662.234 323.127 649.086 325.575 635.069 325.575C621.053 325.575 607.861 323.126 595.579 318.187H595.578C583.247 313.245 572.461 306.265 563.171 297.156C554.17 288.331 547.04 278.017 541.78 266.21L541.277 265.062C535.977 252.741 533.301 239.098 533.301 224.126C533.301 209.154 535.931 195.784 541.276 183.509L541.277 183.507C546.582 171.175 553.879 160.525 563.168 151.553C572.459 142.579 583.247 135.599 595.578 130.657C607.906 125.717 621.053 123.268 635.069 123.268ZM634.797 158.256C622.554 158.256 612.353 160.962 603.114 166.294L603.112 166.295C593.87 171.675 586.699 179.308 581.511 189.181C576.318 199.06 573.755 210.715 573.755 224.126C573.755 237.537 576.318 249.235 581.51 259.205C586.698 269.168 593.914 276.893 603.112 282.229V282.229C612.353 287.608 622.874 290.314 634.797 290.314C646.652 290.314 657.069 287.819 666.031 282.728L666.894 282.228C675.998 276.847 683.168 269.168 688.356 259.205C693.548 249.235 696.111 237.537 696.111 224.126C696.111 210.714 693.547 199.106 688.355 189.182V189.181C683.167 179.309 675.997 171.676 666.894 166.297L666.893 166.296L666.029 165.8C657.068 160.751 646.651 158.256 634.797 158.256Z" fill="#D1FF52" fill-opacity="0.1" stroke="white"/>
<path d="M806.491 166.363V202.125L797.935 250.051L798.381 250.13V250.639H806.491V323.572H767.221V166.363H806.491ZM806.491 247.417C806.466 248.149 806.453 248.889 806.449 249.639H799.024L806.491 207.815V247.417ZM855.872 205.49C854.339 205.02 852.865 204.759 851.388 204.677C849.739 204.585 848.09 204.54 846.35 204.54C838.843 204.54 832.061 206.291 825.968 209.753C819.862 213.222 815.104 218.354 811.648 225.083C809.735 228.807 808.349 233.031 807.491 237.742V202.246C811.066 190.566 817.155 181.341 825.705 174.592C834.144 167.929 844.207 164.503 855.872 164.408V205.49Z" fill="#D1FF52" fill-opacity="0.1" stroke="white"/>
<path d="M922.973 166.361V323.57H883.43V166.361H922.973ZM903.475 96.1621C911.381 96.1621 917.905 98.5836 923.132 103.453C928.361 108.324 930.946 114.251 930.946 121.354C930.946 128.456 928.317 134.336 923.134 139.117C917.908 143.896 911.383 146.273 903.475 146.273C895.567 146.273 889.042 143.896 883.815 139.116C878.587 134.335 875.959 128.456 875.959 121.354C875.96 114.251 878.543 108.326 883.816 103.455L883.818 103.453C889.045 98.5835 895.57 96.1622 903.475 96.1621Z" fill="#D1FF52" fill-opacity="0.1" stroke="white"/>
<path d="M962.103 166.317V179.137L962.766 178.909L999.277 166.343C999.314 166.334 999.35 166.326 999.387 166.317H1050.34V198.162H1015.49V276.332C1015.49 281.393 1016.94 285.244 1019.95 287.827C1022.9 290.36 1026.25 291.638 1029.98 291.638C1032.31 291.638 1034.51 291.264 1036.58 290.465C1038.47 289.735 1040.31 288.692 1042.11 287.342L1055.9 314.142C1051.07 317.991 1046.08 320.838 1040.93 322.645L1040.92 322.646C1035.66 324.537 1029.79 325.486 1023.37 325.486H1022.56L1022.6 325.569C1008.24 325.41 996.901 321.032 988.517 312.427L988.516 312.426L988.119 312.015C979.846 303.318 975.676 290.978 975.676 274.92V198.162H951.122V166.317H962.103ZM996.281 166.317L963.103 177.735V166.356C963.397 166.35 963.687 166.337 963.973 166.317H996.281ZM1015.49 127.232V145.592C1015.49 148.373 1014.79 151.123 1013.4 153.936C1012.02 156.74 1010.11 159.145 1007.65 161.197L1007.65 161.2C1005.32 163.187 1002.51 164.548 999.271 165.317H968.601C970.212 164.674 971.617 163.729 972.806 162.472L972.805 162.471C975.281 159.898 976.496 156.439 976.496 152.151V127.232H1015.49Z" fill="#D1FF52" fill-opacity="0.1" stroke="white"/>
<path d="M1123.18 166.361V251.549C1123.18 264.386 1126.44 274.363 1133.02 281.453C1139.59 288.536 1148.21 292.045 1158.81 292.045C1166.14 292.045 1172.53 290.152 1177.95 286.398C1183.36 282.651 1187.52 277.474 1190.42 270.93C1191.89 267.612 1192.98 264.073 1193.7 260.313V290.805C1192.99 292.58 1192.22 294.285 1191.39 295.919C1186.18 306.149 1179.59 313.632 1171.58 318.402L1171.58 318.403C1163.6 323.195 1154.88 325.585 1145.34 325.619L1145.3 325.575H1145.09C1132.59 325.575 1121.79 322.948 1112.64 317.625L1112.63 317.624C1103.48 312.347 1096.48 304.725 1091.56 294.695L1091.1 293.753C1086.49 283.953 1084.19 272.141 1084.19 258.382V166.361H1123.18ZM1234.24 166.361V323.57H1215.61C1209.25 323.57 1204.19 321.649 1200.38 317.841C1196.83 314.282 1194.91 309.632 1194.68 303.848L1194.7 303.869V290.994C1198.45 281.579 1200.54 270.264 1201.03 257.034L1201.04 256.855L1200.93 256.713L1194.7 248.496V166.361H1234.24ZM1200.02 257.173C1199.56 269.104 1197.8 279.421 1194.7 288.153V251.226C1194.71 250.882 1194.72 250.537 1194.73 250.19L1200.02 257.173Z" fill="#D1FF52" fill-opacity="0.1" stroke="white"/>
<path d="M1313.65 166.363V202.125L1305.09 250.051L1305.54 250.13V250.639H1313.65V323.572H1274.38V166.363H1313.65ZM1313.65 247.417C1313.62 248.149 1313.61 248.889 1313.6 249.639H1306.18L1313.65 207.815V247.417ZM1363.03 205.49C1361.49 205.02 1360.02 204.759 1358.54 204.677C1356.89 204.585 1355.24 204.54 1353.5 204.54C1346 204.54 1339.22 206.291 1333.12 209.753C1327.02 213.222 1322.26 218.354 1318.8 225.083C1316.89 228.806 1315.5 233.028 1314.65 237.736V202.246C1318.22 190.566 1324.31 181.341 1332.86 174.592C1341.3 167.929 1351.36 164.503 1363.03 164.408V205.49Z" fill="#D1FF52" fill-opacity="0.1" stroke="white"/>
<path d="M1462.88 164.361C1472.35 164.361 1481.23 165.631 1489.56 168.211L1489.56 168.212C1497.9 170.748 1505.22 174.368 1511.55 178.979C1517.87 183.585 1522.79 189.133 1526.26 195.532C1529.73 201.926 1531.48 208.904 1531.48 216.431C1531.48 226.212 1528.65 234.384 1523.04 240.933C1517.4 247.514 1509.86 252.756 1500.54 256.648C1491.16 260.547 1480.86 263.18 1469.69 264.587C1458.47 265.995 1447.48 266.539 1436.67 266.132C1434.93 265.948 1432.95 265.858 1430.62 265.858C1428.3 265.858 1426.31 265.858 1424.51 265.723L1424.5 265.722L1422.24 265.619C1421.64 265.596 1421.2 265.585 1420.92 265.585H1420.3L1420.43 266.192C1421.6 271.447 1424.38 276.266 1428.72 280.693C1433.06 285.124 1438.4 288.532 1444.75 290.969L1444.75 290.97C1451.1 293.361 1457.9 294.555 1465.2 294.555C1471.54 294.555 1477.7 293.498 1483.63 291.383C1489.56 289.272 1495.11 286.333 1500.16 282.614L1500.16 282.615C1505.1 279.013 1509.18 275.057 1512.4 270.793L1539.29 291.052C1533.29 298.847 1526.42 305.282 1518.59 310.4C1510.86 315.448 1502.63 319.219 1493.89 321.674L1493.04 321.907C1483.93 324.355 1474.45 325.579 1464.61 325.579C1452.5 325.579 1441.26 323.674 1430.93 319.915H1430.93C1420.93 316.228 1412.2 311.057 1404.71 304.401L1403.99 303.753C1396.35 296.74 1390.38 288.416 1386.12 278.641L1386.12 278.64C1381.87 268.916 1379.74 258.098 1379.74 246.132C1379.74 234.165 1381.92 222.663 1386.26 212.621C1390.6 202.615 1396.67 193.972 1404.41 186.823L1404.41 186.822C1412.15 179.624 1421.07 174.1 1431.08 170.204C1441.09 166.31 1451.68 164.361 1462.88 164.361ZM1464.02 195.021C1455.19 195.021 1447.31 197.044 1440.48 201.104C1433.67 205.153 1428.33 210.404 1424.46 216.856C1420.59 223.298 1418.47 229.982 1418.1 236.949L1418.07 237.436L1418.56 237.474C1420.84 237.656 1423.72 237.839 1427.13 238.066L1427.14 238.067C1430.56 238.25 1434.22 238.341 1438 238.341H1438.05C1444.35 238.341 1450.7 238.067 1457.09 237.474C1463.5 236.879 1469.45 235.78 1474.91 234.176C1480.38 232.565 1484.83 230.21 1488.22 227.238L1488.22 227.236C1491.65 224.179 1493.4 220.307 1493.4 215.565C1493.4 211.738 1492.16 208.346 1489.65 205.364L1489.4 205.077C1486.79 202.047 1483.26 199.639 1478.93 197.795C1474.57 195.942 1469.58 195.021 1464.02 195.021Z" fill="#D1FF52" fill-opacity="0.1" stroke="white"/>
</svg>
