<svg width="59" height="59" viewBox="0 0 59 59" fill="none" xmlns="http://www.w3.org/2000/svg">
<path d="M29.3555 58.7112C29.3555 42.5018 42.4955 29.3555 58.7112 29.3555C58.7112 45.5649 45.5712 58.7112 29.3555 58.7112Z" fill="#D1FF52"/>
<path d="M0 29.3555C0 45.5649 13.14 58.7112 29.3558 58.7112C29.3558 42.5018 16.2157 29.3555 0 29.3555Z" fill="#D1FF52"/>
<path d="M58.7112 29.3558C42.5018 29.3558 29.3555 16.2157 29.3555 0C45.5649 0 58.7112 13.14 58.7112 29.3558Z" fill="#D1FF52"/>
<path d="M0 29.3558V0H29.3558C29.3558 16.2094 16.2157 29.3558 0 29.3558Z" fill="#D1FF52"/>
<path d="M29.3552 36.287C29.3552 32.4566 32.4563 29.3555 36.2867 29.3555C36.2867 33.1859 33.1856 36.287 29.3552 36.287Z" fill="#D1FF52"/>
<path d="M22.4238 29.3555C22.4238 33.1859 25.5249 36.287 29.3553 36.287C29.3553 32.4566 26.2542 29.3555 22.4238 29.3555Z" fill="#D1FF52"/>
<path d="M36.2867 29.3553C32.4563 29.3553 29.3552 26.2542 29.3552 22.4238C33.1856 22.4238 36.2867 25.5249 36.2867 29.3553Z" fill="#D1FF52"/>
<path d="M22.4238 29.3553C22.4238 25.5249 25.5249 22.4238 29.3553 22.4238C29.3553 26.2542 26.2542 29.3553 22.4238 29.3553Z" fill="#D1FF52"/>
</svg>
