<svg width="215" height="59" viewBox="0 0 215 59" fill="none" xmlns="http://www.w3.org/2000/svg">
<path d="M29.3555 58.7112C29.3555 42.5018 42.4955 29.3555 58.7112 29.3555C58.7112 45.5649 45.5712 58.7112 29.3555 58.7112Z" fill="#D1FF52"/>
<path d="M0 29.3555C0 45.5649 13.14 58.7112 29.3558 58.7112C29.3558 42.5018 16.2157 29.3555 0 29.3555Z" fill="#D1FF52"/>
<path d="M58.7112 29.3558C42.5018 29.3558 29.3555 16.2157 29.3555 0C45.5649 0 58.7112 13.14 58.7112 29.3558Z" fill="#D1FF52"/>
<path d="M0 29.3558V0H29.3558C29.3558 16.2094 16.2157 29.3558 0 29.3558Z" fill="#D1FF52"/>
<path d="M29.3552 36.287C29.3552 32.4566 32.4563 29.3555 36.2867 29.3555C36.2867 33.1859 33.1856 36.287 29.3552 36.287Z" fill="#D1FF52"/>
<path d="M22.4238 29.3555C22.4238 33.1859 25.5249 36.287 29.3553 36.287C29.3553 32.4566 26.2542 29.3555 22.4238 29.3555Z" fill="#D1FF52"/>
<path d="M36.2867 29.3553C32.4563 29.3553 29.3552 26.2542 29.3552 22.4238C33.1856 22.4238 36.2867 25.5249 36.2867 29.3553Z" fill="#D1FF52"/>
<path d="M22.4238 29.3553C22.4238 25.5249 25.5249 22.4238 29.3553 22.4238C29.3553 26.2542 26.2542 29.3553 22.4238 29.3553Z" fill="#D1FF52"/>
<path d="M88.4097 45.3939C86.4502 45.3939 84.6047 45.0514 82.8861 44.3602C81.1612 43.6689 79.6518 42.6923 78.3518 41.4176C77.0517 40.1429 76.0307 38.6463 75.2887 36.9277C74.5468 35.2027 74.1726 33.2939 74.1726 31.2011C74.1726 29.1084 74.5404 27.2376 75.2887 25.519C76.0307 23.794 77.0517 22.3037 78.3518 21.0481C79.6518 19.7924 81.1612 18.8158 82.8861 18.1245C84.6111 17.4333 86.4502 17.0908 88.4097 17.0908C90.3693 17.0908 92.2148 17.4333 93.9334 18.1245C95.6583 18.8158 97.1613 19.7861 98.4487 21.0481C99.736 22.3101 100.744 23.8004 101.493 25.519C102.235 27.2439 102.609 29.1337 102.609 31.2011C102.609 33.2685 102.235 35.2027 101.493 36.9277C100.751 38.6526 99.736 40.1493 98.4487 41.4176C97.1613 42.6923 95.6583 43.6689 93.9334 44.3602C92.2084 45.0514 90.3693 45.3939 88.4097 45.3939ZM88.3717 40.3459C90.0649 40.3459 91.5425 39.9781 92.8045 39.2297C94.0602 38.4877 95.0495 37.4287 95.7661 36.0525C96.4827 34.6764 96.8379 33.0592 96.8379 31.2011C96.8379 29.343 96.4827 27.7386 95.7661 26.3687C95.0495 25.0053 94.0602 23.9526 92.8045 23.2106C91.5425 22.4686 90.0649 22.1008 88.3717 22.1008C86.6785 22.1008 85.2706 22.4749 83.9959 23.2106C82.7212 23.9526 81.7319 25.0053 81.0153 26.3687C80.2987 27.7322 79.9436 29.343 79.9436 31.2011C79.9436 33.0592 80.2987 34.6764 81.0153 36.0525C81.7319 37.4287 82.7276 38.4941 83.9959 39.2297C85.2706 39.9717 86.7228 40.3459 88.3717 40.3459Z" fill="#D1FF52"/>
<path d="M106.737 45.1148V23.0901H112.343V45.1148H106.737ZM111.151 34.8222L112.343 28.1444C112.844 26.5019 113.701 25.2019 114.905 24.2506C116.11 23.2994 117.55 22.8174 119.218 22.8174V28.7025C118.977 28.62 118.749 28.5757 118.52 28.563C118.292 28.5503 118.064 28.5439 117.823 28.5439C116.789 28.5439 115.857 28.7849 115.02 29.2606C114.182 29.7362 113.529 30.4401 113.054 31.366C112.578 32.2919 112.337 33.4461 112.337 34.8222H111.145H111.151Z" fill="#D1FF52"/>
<path d="M125.775 20.4328C124.659 20.4328 123.733 20.0967 122.991 19.4181C122.249 18.7395 121.875 17.9024 121.875 16.8941C121.875 15.8858 122.243 15.0423 122.991 14.3511C123.733 13.6598 124.659 13.3174 125.775 13.3174C126.891 13.3174 127.817 13.6598 128.559 14.3511C129.301 15.0423 129.669 15.8858 129.669 16.8941C129.669 17.9024 129.295 18.7395 128.559 19.4181C127.817 20.0967 126.891 20.4328 125.775 20.4328ZM122.915 45.1147V23.09H128.559V45.1147H122.915Z" fill="#D1FF52"/>
<path d="M142.473 45.3939C140.405 45.3939 138.769 44.7788 137.564 43.5421C136.359 42.3118 135.757 40.5552 135.757 38.2722V27.6561H132.339V23.0838H146.29V27.6561H141.439V38.4688C141.439 39.16 141.636 39.6737 142.035 40.0161C142.435 40.3586 142.885 40.5298 143.386 40.5298C143.703 40.5298 144.001 40.4791 144.28 40.3713C144.559 40.2635 144.832 40.1049 145.098 39.8956L147.083 43.7514C146.392 44.3095 145.675 44.7217 144.933 44.9817C144.191 45.248 143.367 45.3812 142.466 45.3812L142.473 45.3939ZM134.006 24.8404V23.0901C134.59 23.0901 135.047 22.9189 135.376 22.5701C135.706 22.2276 135.871 21.7647 135.871 21.1813V17.6426H141.439V20.268C141.439 20.6676 141.338 21.0608 141.141 21.4603C140.944 21.8598 140.672 22.2023 140.323 22.494C139.98 22.7857 139.568 22.9823 139.093 23.0901L134.006 24.8404Z" fill="#D1FF52"/>
<path d="M159.411 45.3936C157.661 45.3936 156.145 45.0258 154.858 44.2775C153.571 43.5355 152.588 42.4638 151.896 41.0559C151.205 39.6544 150.863 37.9548 150.863 35.9699V23.0898H156.431V35.0186C156.431 36.7943 156.881 38.1641 157.782 39.1344C158.682 40.1047 159.862 40.5866 161.32 40.5866C162.329 40.5866 163.204 40.3266 163.946 39.8129C164.688 39.2992 165.258 38.589 165.658 37.6885C166.058 36.7879 166.254 35.7669 166.254 34.6254L167.129 35.7796C167.047 37.9802 166.647 39.7939 165.918 41.2271C165.189 42.6604 164.263 43.7131 163.134 44.3853C162.005 45.0639 160.769 45.4 159.418 45.4L159.411 45.3936ZM166.248 42.134V23.0898H171.892V45.1146H169.228C168.328 45.1146 167.605 44.8419 167.06 44.2965C166.514 43.7511 166.241 43.0282 166.241 42.1277L166.248 42.134Z" fill="#D1FF52"/>
<path d="M177.34 45.1148V23.0901H182.946V45.1148H177.34ZM181.753 34.8222L182.946 28.1444C183.447 26.5019 184.303 25.2019 185.508 24.2506C186.713 23.2994 188.152 22.8174 189.82 22.8174V28.7025C189.579 28.62 189.351 28.5757 189.122 28.563C188.894 28.5503 188.666 28.5439 188.425 28.5439C187.391 28.5439 186.459 28.7849 185.622 29.2606C184.785 29.7362 184.132 30.4401 183.656 31.366C183.18 32.2919 182.939 33.4461 182.939 34.8222H181.747H181.753Z" fill="#D1FF52"/>
<path d="M203.892 45.3939C202.199 45.3939 200.626 45.1275 199.18 44.6011C197.734 44.0684 196.478 43.3138 195.407 42.3372C194.335 41.3542 193.498 40.1873 192.902 38.8175C192.306 37.454 192.008 35.9384 192.008 34.2642C192.008 32.5899 192.312 30.9792 192.921 29.5713C193.53 28.1698 194.379 26.9585 195.464 25.9565C196.548 24.9482 197.798 24.1745 199.199 23.6291C200.601 23.0837 202.085 22.811 203.651 22.811C204.976 22.811 206.219 22.9886 207.386 23.3501C208.553 23.7052 209.58 24.2126 210.468 24.8594C211.356 25.5063 212.047 26.2863 212.536 27.1868C213.024 28.0873 213.271 29.0703 213.271 30.1294C213.271 31.5055 212.872 32.6597 212.079 33.5856C211.286 34.5115 210.227 35.2471 208.921 35.7925C207.608 36.3379 206.169 36.7057 204.609 36.9023C203.042 37.0989 201.507 37.175 199.998 37.1179C199.757 37.0926 199.484 37.0799 199.161 37.0799C198.838 37.0799 198.559 37.0799 198.305 37.0609C198.051 37.0482 197.886 37.0418 197.81 37.0418C197.969 37.7584 198.349 38.418 198.945 39.0268C199.542 39.6356 200.277 40.1049 201.152 40.441C202.027 40.7708 202.966 40.9356 203.974 40.9356C204.85 40.9356 205.699 40.7898 206.517 40.4981C207.335 40.2063 208.103 39.8005 208.8 39.2868C209.504 38.7731 210.081 38.2087 210.532 37.5999L214.387 40.5044C213.538 41.6205 212.561 42.5401 211.445 43.2694C210.329 43.9987 209.137 44.5377 207.868 44.8802C206.594 45.2226 205.268 45.3939 203.892 45.3939ZM200.195 33.11C201.07 33.11 201.951 33.0719 202.839 32.9895C203.727 32.907 204.551 32.7548 205.306 32.5329C206.061 32.3109 206.67 31.9875 207.133 31.5816C207.595 31.1694 207.83 30.6494 207.83 30.0089C207.83 29.4762 207.653 29.0069 207.291 28.5947C206.936 28.1825 206.454 27.8527 205.858 27.599C205.262 27.3454 204.577 27.2185 203.809 27.2185C202.592 27.2185 201.507 27.4976 200.569 28.0556C199.63 28.6137 198.895 29.3367 198.362 30.2245C197.829 31.1123 197.538 32.0319 197.487 32.9895C197.804 33.0148 198.203 33.0402 198.679 33.0719C199.155 33.0973 199.662 33.11 200.188 33.11H200.195Z" fill="#D1FF52"/>
</svg>
