<svg width="525" height="499" viewBox="0 0 525 499" fill="none" xmlns="http://www.w3.org/2000/svg">
<path d="M525 39.0607C463.207 69.6582 419.626 101.232 394.258 133.783C368.24 166.984 355.231 202.464 355.231 240.223C355.231 262.357 362.061 280.586 375.72 294.908C389.38 309.881 405.316 322.25 423.529 332.016C441.091 342.432 456.702 350.895 470.362 357.405C483.371 364.566 489.875 371.402 489.875 377.912C489.875 412.416 478.492 441.06 455.726 463.845C432.31 487.282 402.389 499 365.964 499C325.635 499 292.462 485.329 266.444 457.986C240.426 430.644 227.416 391.258 227.416 339.828C227.416 294.257 237.173 251.29 256.687 210.928C275.55 170.565 305.471 132.806 346.45 97.6516C386.778 62.4971 438.815 29.9465 502.559 -1.96183e-06L525 39.0607ZM180.584 39.0607C118.79 69.6582 75.2098 101.232 49.842 133.783C23.8238 166.984 10.8147 202.464 10.8147 240.223C10.8147 262.357 17.6445 280.586 31.304 294.908C44.9636 309.881 60.8998 322.25 79.1125 332.016C96.6748 342.432 112.286 350.895 125.945 357.405C138.954 364.566 145.459 371.402 145.459 377.912C145.459 412.416 134.076 441.06 111.31 463.845C87.8936 487.282 57.9727 499 21.5471 499C-18.7811 499 -51.9543 485.329 -77.9726 457.986C-103.991 430.644 -117 391.258 -117 339.828C-117 294.257 -107.243 251.29 -87.7293 210.928C-68.8661 170.565 -38.9452 132.806 2.03354 97.6516C42.3618 62.497 94.3983 29.9465 158.143 -3.20717e-05L180.584 39.0607Z" fill="#6D55FF" fill-opacity="0.2"/>
</svg>
