<svg width="526" height="499" viewBox="0 0 526 499" fill="none" xmlns="http://www.w3.org/2000/svg">
<path d="M0 459.939C61.7933 429.342 105.374 397.768 130.742 365.217C156.76 332.016 169.769 296.536 169.769 258.777C169.769 236.643 162.939 218.414 149.28 204.092C135.62 189.119 119.684 176.75 101.471 166.984C83.9088 156.568 68.2979 148.105 54.6383 141.595C41.6292 134.434 35.1246 127.598 35.1246 121.088C35.1246 86.5844 46.5076 57.94 69.2735 35.1546C92.69 11.7182 122.611 0 159.036 0C199.365 0 232.538 13.6712 258.556 41.0136C284.574 68.3561 297.584 107.742 297.584 159.172C297.584 204.743 287.827 247.71 268.313 288.072C249.45 328.435 219.529 366.194 178.55 401.348C138.222 436.503 86.1854 469.053 22.4407 499L0 459.939ZM344.416 459.939C406.21 429.342 449.79 397.768 475.158 365.217C501.176 332.016 514.185 296.536 514.185 258.777C514.185 236.643 507.356 218.414 493.696 204.092C480.036 189.119 464.1 176.75 445.887 166.984C428.325 156.568 412.714 148.105 399.055 141.595C386.046 134.434 379.541 127.598 379.541 121.088C379.541 86.5844 390.924 57.94 413.69 35.1546C437.106 11.7182 467.027 0 503.453 0C543.781 0 576.954 13.6712 602.973 41.0136C628.991 68.3561 642 107.742 642 159.172C642 204.743 632.243 247.71 612.729 288.072C593.866 328.435 563.945 366.194 522.966 401.348C482.638 436.503 430.602 469.053 366.857 499L344.416 459.939Z" fill="#D1FF52" fill-opacity="0.2"/>
</svg>
